<svg data-name="Layer 1" xmlns="http://www.w3.org/2000/svg" viewBox="0 0 600 600"><path d="M380.54 259.54c-12.61 0-26.74 7-33.48 18.22h-.43v-59.37h-210.5l-86.8 160.23H235.2l86.64-159.93V379h23.48v-16h.43c7.4 15.29 23.7 19.11 38.92 19.11 33.27 0 48.48-29.46 48.48-60.71 0-33.96-17.15-61.86-52.61-61.86zm-3.26 102.33c-20 0-31.52-17.55-31.52-40.93 0-24.74 10.65-41.16 31.51-41.16 20.43 0 31.08 20 31.1 41.16 0 20.24-8.48 40.93-31.09 40.93zm147.27-26.54h24.78c-4.57 30.13-22.61 46.78-51.52 46.78-35.22 0-54.57-25.86-54.57-60 0-35.08 18.48-62.52 55.44-62.52 26.08 0 48.26 13.49 50.65 42.05h-24.78c-2-14.16-12-21.82-25.65-21.82-12.84 0-30.88 7-30.88 42.29 0 19.34 8.26 39.81 29.79 39.81 14.34-.04 24.34-9.92 26.74-26.59z" fill="#211f1f"/></svg>
